<svg width="107" height="26" viewBox="0 0 107 26" fill="none" xmlns="http://www.w3.org/2000/svg">
<path d="M19.8071 3.6239C18.5694 5.96038 17.3883 11.9594 22.5654 17.2639C24.4396 15.2221 26.5119 9.63559 19.8071 3.6239Z" fill="black"/>
<path d="M23.9699 22.7199C23.1446 20.0063 24.5844 13.328 36.5796 5.93225C35.6931 11.7274 31.8567 22.7199 23.9699 22.7199Z" fill="black"/>
<path d="M21.1762 23.4383C7.95922 24.919 0.221244 10.2386 0.665541 2.23002C1.93389 2.44268 8.7327 5.0743 15.5045 11.7654C21.9432 19.4655 23.8635 23.1373 21.1762 23.4383Z" fill="black"/>
<path d="M47.6091 16.6731L51.5525 22.0519H49.6639L46.8234 17.6401L43.6204 22.0519H42.6987L46.4759 17.2019L42.88 12.0498H44.7686L47.2767 16.2047L50.4194 12.0498H51.341L47.6091 16.6731ZM56.8807 22.0519H55.4151V18.3351L52.0005 12.0498H53.6474L56.4425 17.7912L59.0564 12.0498H59.8118L56.8807 18.2595V22.0519ZM60.0355 22.0519V21.9008L65.8071 12.8506C65.2129 12.6793 64.6639 12.5937 64.1603 12.5937L61.0478 13.0621L60.8968 12.0498H67.9677V12.2009L62.0148 21.4475L67.4389 21.0396L67.59 22.0519H60.0355ZM79.6563 14.6485C79.6563 15.6155 79.2987 16.3508 78.5836 16.8544C77.8785 17.348 76.9165 17.5948 75.6978 17.5948H74.3984V22.0519H72.9328V12.0498H76.1812C77.1986 12.0498 78.0296 12.2815 78.6742 12.7448C79.3289 13.2081 79.6563 13.8427 79.6563 14.6485ZM74.3984 17.1566H75.7431C76.2165 17.1566 76.6194 17.0659 76.9518 16.8846C77.2943 16.7033 77.541 16.4717 77.6921 16.1896C77.9641 15.686 78.1001 15.1975 78.1001 14.7241C78.1001 14.4924 78.0396 14.2154 77.9188 13.8931C77.677 13.2283 77.1784 12.7952 76.423 12.5937C75.6978 12.5937 75.0229 12.6793 74.3984 12.8506V17.1566ZM81.9085 11.7325V22.0519H80.6394V11.7325H81.9085ZM87.0386 20.4503V18.8941C86.3134 18.9445 85.7191 19.1056 85.2558 19.3776C84.7924 19.6496 84.5607 19.9417 84.5607 20.2539C84.5607 20.5662 84.6413 20.8381 84.8025 21.0698C84.9636 21.2914 85.1701 21.4475 85.422 21.5382C85.7543 21.4777 86.1069 21.3115 86.4796 21.0396C86.8523 20.7676 87.0386 20.5712 87.0386 20.4503ZM88.2775 20.0424C88.2775 20.7576 88.5394 21.3015 89.0632 21.6742L88.2775 22.2483L87.0537 21.1453C86.258 21.8706 85.5227 22.2332 84.8478 22.2332C84.4046 22.2332 84.0219 22.0922 83.6995 21.8101C83.3873 21.5281 83.2312 21.1756 83.2312 20.7525C83.2312 20.3194 83.3571 19.9618 83.6089 19.6798C83.8708 19.3978 84.2132 19.1812 84.6363 19.0301C85.3615 18.7581 86.1623 18.5869 87.0386 18.5164V17.0962C87.0386 16.2601 86.5551 15.8421 85.5881 15.8421C85.0342 15.8421 84.3794 15.963 83.624 16.2047L83.488 15.827C83.6895 15.6659 84.037 15.4946 84.5305 15.3133C85.0342 15.132 85.5126 15.0414 85.9659 15.0414C86.4191 15.0414 86.7969 15.1018 87.099 15.2227C87.4113 15.3435 87.6379 15.4795 87.7789 15.6306C87.93 15.7817 88.0459 15.9882 88.1264 16.2501C88.207 16.512 88.2523 16.7184 88.2624 16.8695C88.2725 17.0206 88.2775 17.2221 88.2775 17.4739V20.0424ZM91.5789 16.1896C92.0019 15.7867 92.3696 15.4946 92.6818 15.3133C93.0041 15.132 93.3819 15.0414 93.815 15.0414C94.2481 15.0414 94.646 15.2126 95.0086 15.5551C95.3813 15.8975 95.5676 16.4868 95.5676 17.3228V22.0519H94.2834V17.4739C94.2834 16.9803 94.1927 16.6127 94.0114 16.3709C93.8402 16.1191 93.538 15.9932 93.1049 15.9932C92.6818 15.9932 92.1883 16.2752 91.6242 16.8393V22.0519H90.3399V17.3077C90.3399 16.6228 90.0831 16.0738 89.5694 15.6608L90.3399 15.0867L91.5789 16.1896ZM99.015 20.7223C99.015 21.0245 99.0754 21.2511 99.1963 21.4022C99.3171 21.5533 99.5186 21.6288 99.8006 21.6288C100.083 21.6288 100.42 21.5533 100.813 21.4022V21.8252C100.229 22.0972 99.7049 22.2332 99.2416 22.2332C98.7783 22.2332 98.4106 22.1073 98.1386 21.8555C97.8768 21.5936 97.7458 21.1907 97.7458 20.6468V15.7666L96.522 15.5248V15.2227H97.7458V14.6787L99.015 13.7571V15.2227H100.813V15.7666H99.015V20.7223ZM103.582 15.6759C103.32 15.6759 103.103 15.7767 102.932 15.9781C102.771 16.1695 102.69 16.3911 102.69 16.6429C102.69 16.8846 102.806 17.1213 103.038 17.353C103.28 17.5746 103.567 17.7761 103.899 17.9574C104.242 18.1286 104.579 18.3099 104.911 18.5013C105.244 18.6927 105.526 18.9394 105.758 19.2416C105.999 19.5438 106.12 19.8812 106.12 20.2539C106.12 20.818 105.894 21.2914 105.44 21.6742C104.987 22.0468 104.368 22.2332 103.582 22.2332C102.806 22.2332 102.096 22.0519 101.452 21.6893V21.1151C102.136 21.4576 102.756 21.6288 103.31 21.6288C103.864 21.6288 104.267 21.518 104.519 21.2964C104.77 21.0748 104.896 20.823 104.896 20.541C104.896 20.2489 104.781 19.992 104.549 19.7704C104.327 19.5388 104.05 19.3373 103.718 19.1661C103.396 18.9948 103.073 18.8135 102.751 18.6222C102.429 18.4308 102.152 18.184 101.92 17.8818C101.698 17.5796 101.588 17.217 101.588 16.794C101.588 16.3609 101.759 15.963 102.101 15.6004C102.454 15.2277 102.993 15.0414 103.718 15.0414C104.443 15.0414 105.138 15.1723 105.803 15.4342L105.652 16.4314C104.906 16.0285 104.216 15.7767 103.582 15.6759Z" fill="black"/>
</svg>
